<?xml version="1.0" encoding="UTF-8" standalone="no"?>
<!DOCTYPE svg PUBLIC "-//W3C//DTD SVG 1.1//EN" "http://www.w3.org/Graphics/SVG/1.1/DTD/svg11.dtd">
<svg width="100%" height="auto" viewBox="0 0 176 50" version="1.1" xmlns="http://www.w3.org/2000/svg" xmlns:xlink="http://www.w3.org/1999/xlink" xml:space="preserve" xmlns:serif="http://www.serif.com/" style="fill-rule:evenodd;clip-rule:evenodd;stroke-linejoin:round;stroke-miterlimit:1.41421;">
    <g transform="matrix(1.12949,0,0,1.12949,-53.1406,-47.1078)">
        <g transform="matrix(1,0,0,1,0,-747.834)">
            <path d="M54.926,793.844C58.536,791.654 62.173,789.541 62.48,789.541C62.541,789.541 62.732,789.623 63.027,789.773C64.225,790.379 67.138,792.087 70.035,793.844C70.05,797.577 68.127,799.623 62.481,798.429C59.356,800.213 56.897,798.359 54.926,793.844Z" style="fill:rgb(227,152,118);"/>
        </g>
        <g transform="matrix(-0.854876,0.518832,0.518832,0.854876,-292.265,-649.705)">
            <path d="M55.947,790.652L64.886,790.652L69.013,782.722L60.074,782.723L55.947,790.652Z" style="fill:rgb(207,206,209);"/>
        </g>
        <g transform="matrix(-0.854876,0.518832,0.518832,0.854876,-292.265,-649.705)">
            <path d="M55.947,790.652L64.886,790.652L69.013,782.722L60.074,782.723L55.947,790.652Z" style="fill:rgb(236,121,68);"/>
        </g>
        <g transform="matrix(1,0,0,1,0,-722.388)">
            <path d="M62.823,782.05L54.953,786.826L47.284,782.311L47.284,782.205L55.067,777.482L62.823,782.05Z" style="fill:rgb(181,183,186);"/>
        </g>
        <g transform="matrix(-0.854876,0.518832,0.518832,0.854876,-292.265,-649.705)">
            <path d="M55.947,790.652L64.886,790.652L69.013,782.722L60.074,782.723L55.947,790.652Z" style="fill:rgb(229,130,84);"/>
        </g>
        <g transform="matrix(1,0,0,1,0,-713.099)">
            <path d="M77.445,763.887C77.754,764.601 77.753,781.491 77.445,782.05C77.138,782.61 63.222,791.056 62.481,791.132L62.481,772.969L62.481,772.969L70.122,768.331L70.123,768.331L77.445,763.887Z" style="fill:rgb(66,79,85);"/>
        </g>
        <g transform="matrix(1,0,0,1,0,-731.315)">
            <path d="M54.838,786.547L47.284,791.132C47.284,786.785 47.36,782.452 47.515,782.103L54.838,786.547Z" style="fill:rgb(207,206,209);"/>
        </g>
        <g transform="matrix(1,0,0,1,0,-712.905)">
            <path d="M62.481,772.775L62.481,782.05L54.838,777.412L62.481,772.775Z" style="fill:rgb(155,158,165);"/>
        </g>
        <g transform="matrix(-0.516523,-0.856273,-0.856273,0.516523,743.206,-293.41)">
            <path d="M49.061,774.266C46.823,777.059 47.387,779.946 49.061,782.87L49.061,782.87C49.38,782.857 53.159,780.667 56.911,778.405C54.97,776.294 52.662,774.58 49.061,774.266Z" style="fill:rgb(194,194,198);"/>
        </g>
        <g transform="matrix(-0.854914,0.518769,0.518769,0.854914,-292.745,-650.333)">
            <path d="M55.449,791.772L65.018,791.772L69.916,783.175C67.845,780.923 64.401,780.862 59.879,783.546C55.136,785.051 52.498,787.351 55.449,791.772Z" style="fill:rgb(229,130,84);"/>
        </g>
        <g transform="matrix(1,0,0,1,0,-704.022)">
            <path d="M77.447,772.965L77.445,772.973C77.282,773.27 73.293,775.784 69.472,778.089L61.172,772.831L69.376,767.853L77.447,772.965Z" style="fill:rgb(103,114,119);"/>
        </g>
        <g transform="matrix(1,0,0,1,0,-740.678)">
            <path d="M70.035,786.688C73.658,788.887 77.234,791.148 77.445,791.466L77.445,791.466L70.122,795.91L62.481,791.273L66.302,788.954L70.035,786.688Z" style="fill:rgb(239,105,43);"/>
        </g>
        <g transform="matrix(1,0,0,1,0,-722.181)">
            <path d="M77.677,781.997L77.677,782.051L77.677,782.104L70.122,786.688L62.481,782.051L70.122,777.413L77.677,781.997Z" style="fill:rgb(66,79,85);"/>
        </g>
        <g transform="matrix(1,0,0,1,0,-721.074)">
            <path d="M77.677,780.89L77.677,780.944L77.677,780.997C76.066,784.384 73.337,785.48 70.122,785.581C65.576,786.688 63.135,785.001 62.481,780.944L70.122,776.306C73.897,776.533 76.575,777.896 77.677,780.89Z" style="fill:rgb(92,101,107);"/>
        </g>
        <g transform="matrix(1,0,0,1,0,-731.316)">
            <path d="M77.445,782.104C77.598,782.458 77.675,786.787 77.677,791.132L70.122,786.548L77.445,782.104Z" style="fill:rgb(66,79,85);"/>
        </g>
        <g transform="matrix(1,0,0,1,0,-703.173)">
            <path d="M77.445,772.124L77.445,772.124C77.29,772.406 73.676,774.693 70.035,776.902C66.152,778.039 64.114,775.574 62.481,772.318C63.645,770.159 65.085,768.122 70.122,767.68C75.54,767.054 76.805,769.368 77.445,772.124Z" style="fill:rgb(103,114,119);"/>
        </g>
        <g transform="matrix(1,0,0,1,0,-704.076)">
            <path d="M47.515,773.027L55.24,768.34L63.038,772.775L54.995,777.656L51.102,775.442C49.127,774.206 47.655,773.234 47.515,773.027Z" style="fill:rgb(168,171,175);"/>
        </g>
        <g transform="matrix(1,0,0,1,0,-713.046)">
            <path d="M77.676,772.969C77.676,777.32 77.6,781.648 77.445,781.997L70.122,777.553L77.676,772.969Z" style="fill:rgb(78,90,95);"/>
        </g>
        <g transform="matrix(1,0,0,1,0,-730.675)">
            <path d="M54.882,785.907C53.455,789.531 51.662,791.36 47.284,790.492L47.298,787.415L47.485,781.625L47.515,781.463C47.537,781.424 47.624,781.347 47.773,781.235L54.882,785.907Z" style="fill:rgb(207,206,209);"/>
        </g>
        <g transform="matrix(0.854874,0.518836,0.518836,-0.854874,-402.573,698.547)">
            <path d="M52.544,795.204L61.381,795.204L57.254,787.274L48.688,787.274C48.674,787.595 50.577,791.426 52.544,795.204Z" style="fill:rgb(222,182,167);"/>
        </g>
        <g transform="matrix(1,0,0,1,0,-722.177)">
            <path d="M62.481,782.047C61.091,784.795 58.878,786.688 54.838,786.684L47.284,782.1L47.284,781.994L54.838,777.409L62.481,782.047Z" style="fill:rgb(181,183,186);"/>
        </g>
        <g transform="matrix(0.854903,-0.518788,-0.518788,-0.854903,408.9,758.321)">
            <path d="M48.688,776.827L57.254,776.827C59.321,774.845 61.044,772.534 61.381,768.897C58.777,768.155 55.777,768.273 52.544,768.897C50.592,772.645 48.703,776.444 48.688,776.827Z" style="fill:rgb(168,171,175);"/>
        </g>
        <g transform="matrix(-0.854876,0.518832,0.518832,0.854876,-287.453,-632.501)">
            <path d="M55.947,781.377L64.886,781.377L69.013,773.447L60.074,773.448L55.947,781.377Z" style="fill:rgb(155,158,165);"/>
        </g>
        <g transform="matrix(0,-1,-1,-0,830.811,136.069)">
            <path d="M62.34,760.776C60.149,764.388 58.036,768.024 58.036,768.331C58.036,768.639 60.149,772.274 62.34,775.886L66.924,768.331L62.34,760.776Z" style="fill:rgb(143,148,153);"/>
        </g>
        <g transform="matrix(1,0,0,1,0,-719.441)">
            <path d="M97.774,783.307C97.117,784.431 95.991,785.356 94.147,785.356C91.021,785.356 89.833,782.448 89.833,780.763L89.833,780.73C89.833,778.648 91.146,776.004 94.116,776.004C96.305,776.004 97.493,777.293 98.055,778.549C98.399,779.309 98.555,780.135 98.493,780.961C98.43,781.787 98.211,782.58 97.774,783.307ZM103.682,789.85L103.682,771.511L98.493,771.511L98.493,773.46C97.805,772.337 96.211,770.883 93.366,770.883C88.739,770.883 84.644,774.65 84.644,780.663C84.644,785.918 87.864,790.478 93.366,790.478C95.398,790.478 97.555,789.652 98.493,787.868L98.493,789.85L103.682,789.85Z" style="fill:rgb(64,78,85);fill-rule:nonzero;"/>
        </g>
        <g transform="matrix(1,0,0,1,0,-724.96)">
            <path d="M117.315,789.454C116.502,790.313 115.345,790.842 114.095,790.842C111.656,790.842 109.749,788.958 109.749,786.15L109.749,786.117C109.749,784.002 111.156,781.523 114.157,781.523C115.377,781.523 116.471,781.986 117.253,782.812C118.034,783.606 118.534,784.729 118.534,786.051C118.597,787.406 118.128,788.595 117.315,789.454ZM118.253,776.6L118.253,778.583C117.69,777.989 116.221,776.402 113.157,776.402C108.749,776.402 104.561,779.937 104.561,786.15C104.561,791.668 107.998,795.963 113.251,795.963C116.752,795.963 118.003,794.146 118.503,793.387L118.503,795.369L123.442,795.369L123.442,770.917L118.253,770.917L118.253,776.6Z" style="fill:rgb(64,78,85);fill-rule:nonzero;"/>
        </g>
        <g transform="matrix(1,0,0,1,0,-719.441)">
            <path d="M135.45,789.85L141.702,771.511L136.326,771.511L132.98,782.944L129.635,771.511L124.259,771.511L130.479,789.85L135.45,789.85Z" style="fill:rgb(64,78,85);fill-rule:nonzero;"/>
        </g>
        <g transform="matrix(1,0,0,1,0,-719.475)">
            <path d="M149.33,775.543C152.018,775.543 153.081,777.592 153.206,778.451L145.453,778.451C145.578,777.592 146.641,775.543 149.33,775.543ZM149.392,790.478C151.174,790.478 152.894,789.917 154.331,788.826C155.801,787.769 157.02,786.183 157.865,784.134L152.55,784.134C151.924,785.093 151.049,785.852 149.392,785.852C147.36,785.852 145.61,784.564 145.39,782.614L158.302,782.614C158.708,779.244 158.052,776.303 155.863,773.825C154.238,772.008 151.956,770.917 149.298,770.917C144.015,770.917 140.201,775.642 140.201,780.764C140.201,786.215 144.422,790.478 149.392,790.478Z" style="fill:rgb(64,78,85);fill-rule:nonzero;"/>
        </g>
        <g transform="matrix(1,0,0,1,0,-719.441)">
            <path d="M168.71,776.401L168.71,771.518C165.71,771.518 164.803,772.568 164.303,773.559L164.303,771.511L159.426,771.511L159.426,789.85L164.616,789.85L164.616,780.003C164.616,777.425 165.866,776.401 168.523,776.401L168.71,776.401Z" style="fill:rgb(64,78,85);fill-rule:nonzero;"/>
        </g>
        <g transform="matrix(1,0,0,1,0,-745.843)">
            <rect x="169.599" y="791.8" width="5.189" height="4.163" style="fill:rgb(64,78,85);"/>
        </g>
        <g transform="matrix(1,0,0,1,0,-722.193)">
            <path d="M197.368,774.263L194.054,784.902L190.522,774.263L186.458,774.263L184.988,774.263L183.957,774.263L183.957,768.15L178.768,768.15L178.768,774.263L174.788,774.263L173.42,774.263L169.599,774.263L169.599,792.602L174.788,792.602L174.788,778.427L178.768,778.427L178.768,792.602L183.957,792.602L183.957,778.427L186.458,778.427L186.458,778.238L191.428,791.677L189.752,795.963L195.157,795.963L202.87,774.263L197.368,774.263Z" style="fill:rgb(64,78,85);fill-rule:nonzero;"/>
        </g>
        <g transform="matrix(1,0,0,1,0,-677.5)">
            <path d="M89.364,757.67L89.684,757.002C89.138,756.636 88.358,756.391 87.596,756.391C86.233,756.391 85.321,757.049 85.321,758.084C85.321,760.443 89.025,759.513 89.016,761.271C89.016,761.91 88.424,762.296 87.474,762.296C86.731,762.296 85.895,761.957 85.284,761.374L84.945,762.023C85.566,762.615 86.506,763.029 87.465,763.029C88.875,763.029 89.843,762.324 89.843,761.233C89.853,758.845 86.149,759.738 86.149,758.027C86.149,757.463 86.703,757.125 87.549,757.125C88.076,757.125 88.772,757.284 89.364,757.67Z" style="fill:rgb(64,78,85);fill-rule:nonzero;"/>
        </g>
        <g transform="matrix(1,0,0,1,0,-677.499)">
            <path d="M91.385,756.419L91.385,763L92.1,763L92.1,757.528L94.488,762.304L94.939,762.304L97.337,757.528L97.346,763L98.042,763L98.042,756.419L97.12,756.419L94.723,761.195L92.316,756.419L91.385,756.419Z" style="fill:rgb(64,78,85);fill-rule:nonzero;"/>
        </g>
        <g transform="matrix(1,0,0,1,0,-677.499)">
            <path d="M104.943,763L105.761,763L102.818,756.419L102.037,756.419L99.085,763L99.884,763L100.618,761.317L104.2,761.317L104.943,763ZM100.928,760.621L102.404,757.236L103.899,760.621L100.928,760.621Z" style="fill:rgb(64,78,85);fill-rule:nonzero;"/>
        </g>
        <g transform="matrix(1,0,0,1,0,-677.499)">
            <path d="M111.956,763L110.405,760.753C111.355,760.452 111.89,759.709 111.89,758.628C111.89,757.227 110.941,756.419 109.296,756.419L106.795,756.419L106.795,763L107.547,763L107.547,760.913L109.296,760.913C109.446,760.913 109.587,760.903 109.719,760.894L111.101,763L111.956,763ZM107.547,760.217L107.547,757.114L109.296,757.114C110.49,757.114 111.167,757.641 111.167,758.647C111.167,759.681 110.49,760.217 109.296,760.217L107.547,760.217Z" style="fill:rgb(64,78,85);fill-rule:nonzero;"/>
        </g>
        <g transform="matrix(1,0,0,1,0,-677.499)">
            <path d="M112.699,756.419L112.699,757.114L114.843,757.114L114.843,763L115.595,763L115.595,757.114L117.748,757.114L117.748,756.419L112.699,756.419Z" style="fill:rgb(64,78,85);fill-rule:nonzero;"/>
        </g>
        <g transform="matrix(1,0,0,1,0,-677.499)">
            <path d="M120.719,756.419L122.919,763L123.69,763L125.485,757.425L127.262,763L128.033,763L130.243,756.419L129.462,756.419L127.676,762.154L125.871,756.419L125.119,756.419L123.332,762.154L121.527,756.419L120.719,756.419Z" style="fill:rgb(64,78,85);fill-rule:nonzero;"/>
        </g>
        <g transform="matrix(1,0,0,1,0,-677.499)">
            <rect x="131.22" y="756.419" width="0.752" height="6.581" style="fill:rgb(64,78,85);"/>
        </g>
        <g transform="matrix(1,0,0,1,0,-677.499)">
            <path d="M133.073,756.419L133.073,757.114L135.216,757.114L135.216,763L135.968,763L135.968,757.114L138.121,757.114L138.121,756.419L133.073,756.419Z" style="fill:rgb(64,78,85);fill-rule:nonzero;"/>
        </g>
        <g transform="matrix(1,0,0,1,0,-677.499)">
            <path d="M139.212,756.419L139.212,763L139.964,763L139.964,760.085L143.932,760.085L143.932,763L144.684,763L144.684,756.419L143.932,756.419L143.932,759.399L139.964,759.399L139.964,756.419L139.212,756.419Z" style="fill:rgb(64,78,85);fill-rule:nonzero;"/>
        </g>
        <g transform="matrix(1,0,0,1,0,-677.499)">
            <path d="M152.158,756.419L149.497,756.419L149.497,763L152.13,763C154.067,763 155.543,761.58 155.543,759.709C155.543,757.838 154.076,756.419 152.158,756.419ZM152.168,762.304L150.25,762.304L150.25,757.114L152.139,757.114C153.615,757.114 154.781,758.233 154.781,759.719C154.781,761.195 153.634,762.304 152.168,762.304Z" style="fill:rgb(64,78,85);fill-rule:nonzero;"/>
        </g>
        <g transform="matrix(1,0,0,1,0,-677.499)">
            <path d="M161.654,763L162.472,763L159.529,756.419L158.749,756.419L155.797,763L156.596,763L157.329,761.317L160.911,761.317L161.654,763ZM157.639,760.621L159.115,757.236L160.61,760.621L157.639,760.621Z" style="fill:rgb(64,78,85);fill-rule:nonzero;"/>
        </g>
        <g transform="matrix(1,0,0,1,0,-677.499)">
            <path d="M161.992,756.419L161.992,757.114L164.136,757.114L164.136,763L164.888,763L164.888,757.114L167.041,757.114L167.041,756.419L161.992,756.419Z" style="fill:rgb(64,78,85);fill-rule:nonzero;"/>
        </g>
        <g transform="matrix(1,0,0,1,0,-677.499)">
            <path d="M172.41,763L173.227,763L170.285,756.419L169.504,756.419L166.552,763L167.351,763L168.085,761.317L171.667,761.317L172.41,763ZM168.395,760.621L169.871,757.236L171.366,760.621L168.395,760.621Z" style="fill:rgb(64,78,85);fill-rule:nonzero;"/>
        </g>
    </g>
</svg>
